<svg width="62" height="45" viewBox="0 0 62 45" fill="none" xmlns="http://www.w3.org/2000/svg">
<g clip-path="url(#clip0_58_15660)">
<path d="M28.8169 45C28.9093 44.5211 28.9786 44.0421 28.9786 43.5404C28.9786 41.1686 27.8002 39.0476 25.9978 37.7249C25.5818 34.3952 22.7165 31.7953 19.2273 31.7953C15.6225 31.7953 12.6647 34.5549 12.4336 38.0442C11.6711 37.7021 10.8392 37.5196 9.93803 37.5196C6.58744 37.5196 3.86075 40.2107 3.86075 43.5176C3.86075 44.0193 3.93007 44.5211 4.04561 44.9772H28.8169V45Z" fill="#E3E6EF"/>
</g>
<path d="M43.1039 30.7538L43.4401 31.3533L43.8198 31.1452L43.8034 30.9512C43.7967 30.9293 43.8435 30.838 43.892 30.7519C43.9031 30.7322 43.9095 30.7101 43.9107 30.6875C43.9119 30.6649 43.9079 30.6423 43.899 30.6214C43.8901 30.6005 43.8765 30.5818 43.8593 30.5669C43.842 30.5519 43.8216 30.541 43.7995 30.5351C43.6743 30.5014 43.5264 30.4622 43.4855 30.4552C43.4404 30.4486 43.3944 30.4511 43.3504 30.4627C43.3063 30.4744 43.2652 30.4948 43.2295 30.5227C43.1938 30.5507 43.1642 30.5856 43.1426 30.6253C43.121 30.6651 43.1079 30.7088 43.1039 30.7538V30.7538Z" fill="#242831"/>
<path d="M44.2788 30.4337L43.6528 30.4529L43.3743 30.4085C43.3336 30.4017 43.2919 30.4053 43.2532 30.4192C43.2068 30.4369 43.1673 30.4685 43.1402 30.5098C43.113 30.551 43.0997 30.5997 43.1021 30.649L43.1071 30.7508L43.8069 30.9483L44.3836 30.8354L44.3984 30.8179C44.4237 30.7871 44.4409 30.7506 44.4486 30.7116C44.4562 30.6726 44.4542 30.6323 44.4425 30.5942C44.4308 30.5561 44.4099 30.5214 44.3815 30.4931C44.3532 30.4648 44.3184 30.4438 44.28 30.432L44.2788 30.4337Z" fill="#242831"/>
<path d="M44.2791 30.4322C44.2551 30.4398 44.2334 30.4534 44.2163 30.4718C44.1991 30.4902 44.187 30.5127 44.1812 30.5371C44.1754 30.5615 44.1761 30.5869 44.1831 30.6111C44.1901 30.6352 44.2033 30.6572 44.2214 30.6748L44.3828 30.8358L44.9869 30.5047L44.8551 30.2696L44.2791 30.4322Z" fill="#242831"/>
<path d="M38.5736 22.8507L43.0957 30.6962L43.7655 30.3902L40.4052 22.0964C40.1264 21.5193 39.488 21.1984 38.9599 21.4882C38.8434 21.5518 38.7408 21.6377 38.6582 21.7409C38.5755 21.8441 38.5145 21.9625 38.4785 22.0893C38.4425 22.2161 38.4324 22.3488 38.4488 22.4795C38.4651 22.6102 38.5075 22.7364 38.5736 22.8507Z" fill="#870B58"/>
<path d="M32.2617 21.1292L33.6713 18.1364L39.9169 21.4222C40.1487 21.5442 40.3244 21.7496 40.4078 21.996C40.4912 22.2425 40.4759 22.5112 40.3651 22.7468V22.7468C40.2672 22.9545 40.0967 23.12 39.8852 23.2129C39.6736 23.3058 39.4352 23.3198 39.2141 23.2522L32.2617 21.1292Z" fill="#870B58"/>
<path d="M34.2013 20.4914L30.1783 22.6992C29.9972 22.7984 29.7847 22.8254 29.5841 22.7748C29.3836 22.7243 29.2101 22.5999 29.0989 22.4271L28.4418 21.4057C28.2265 21.0692 28.0841 20.37 28.3273 20.0472L28.7108 19.5413C29.3792 18.6315 31.2845 17.6014 32.4184 17.5493L32.9262 17.5167C33.3229 17.491 33.8055 18.0135 34.0152 18.347L34.5419 19.44C34.631 19.6252 34.6454 19.8371 34.5821 20.0325C34.5189 20.2279 34.3826 20.392 34.2013 20.4914V20.4914Z" fill="#870B58"/>
<path d="M28.8263 1.90651L28.7698 1.64434C28.7521 1.56428 28.7158 1.48941 28.6638 1.42564C28.6118 1.36188 28.5455 1.31099 28.4702 1.27699C28.4388 1.25902 28.4124 1.23372 28.3932 1.20329C28.374 1.17285 28.3626 1.13823 28.36 1.10244L28.3071 0.392243C28.3043 0.384695 28.2996 0.377958 28.2935 0.372638C28.2874 0.367317 28.2801 0.363579 28.2722 0.361761C28.2642 0.359943 28.256 0.360102 28.2482 0.362222C28.2403 0.364343 28.2331 0.368358 28.2272 0.373909L27.9404 0.890588C27.8974 0.973125 27.8715 1.06339 27.8644 1.15601C27.8573 1.24864 27.8691 1.34173 27.899 1.42976L28.066 1.93335L28.1614 2.0556C28.1954 2.0987 28.2392 2.13334 28.2891 2.15673C28.3391 2.18013 28.3939 2.19165 28.4491 2.19036C28.5044 2.18908 28.5586 2.17502 28.6073 2.14933C28.6561 2.12363 28.6982 2.087 28.7301 2.04236L28.8263 1.90651Z" fill="#E4003A"/>
<path d="M29.3222 6.47682C29.5456 6.51778 30.0463 6.71376 30.242 6.83564C30.3039 6.87093 30.3561 6.92064 30.3941 6.98041C30.4321 7.04018 30.4547 7.10819 30.4599 7.17845L30.4585 7.18208L30.1776 12.2393C30.1684 12.4436 30.1137 12.6432 30.0174 12.8238C29.921 13.0045 29.7854 13.1617 29.6202 13.2843V13.2843C29.4728 13.3937 29.3049 13.4733 29.126 13.5185C28.9472 13.5637 28.7609 13.5736 28.5779 13.5476C28.3949 13.5217 28.2186 13.4604 28.0593 13.3673C27.8999 13.2742 27.7605 13.151 27.6491 13.0049C27.5242 12.8412 27.4374 12.6523 27.3947 12.452C27.352 12.2516 27.3546 12.0446 27.4023 11.8457L28.5496 6.81679C28.5623 6.7571 28.588 6.70093 28.6251 6.65222C28.6621 6.6035 28.7095 6.56342 28.764 6.53478C28.9383 6.45538 29.1345 6.43501 29.3222 6.47682V6.47682Z" fill="#F8AD07"/>
<path d="M28.0505 1.8677L28.8084 1.91987L30.4527 6.89286L30.4517 6.89611C30.487 7.00304 30.486 7.11846 30.4488 7.22475C30.4116 7.33105 30.3403 7.42238 30.2458 7.48479C29.7112 7.83738 28.9543 7.55799 28.6387 7.00391L28.605 6.94698C28.5677 6.88217 28.5446 6.8103 28.5372 6.73606L28.0505 1.8677Z" fill="#F8AD07"/>
<path d="M26.3071 17.2411L28.441 21.4063L31.0562 19.9711L31.1522 19.1411L31.9141 19.5002L34.0145 18.3476L31.5043 14.35L26.3071 17.2411Z" fill="#F8AD07"/>
<path d="M30.4374 12.86L28.5387 10.5706L24.6813 12.6876L25.5503 15.542L26.3074 17.2408C26.4861 17.4598 26.9679 17.6001 27.2171 17.4633L31.2312 15.2404C31.4817 15.1029 31.6035 14.6153 31.5051 14.3494L30.4374 12.86Z" fill="#F8AD07"/>
<path d="M18.1413 8.20612L17.999 7.97753C17.9552 7.9079 17.8957 7.84929 17.8251 7.80635C17.7546 7.76341 17.6749 7.73732 17.5924 7.73014C17.5568 7.72377 17.5233 7.70879 17.4949 7.68654C17.4664 7.66429 17.444 7.63545 17.4295 7.60257L17.1405 6.952C17.1353 6.94588 17.1286 6.94113 17.1211 6.93819C17.1136 6.93524 17.1054 6.93419 17.0974 6.93512C17.0893 6.93605 17.0816 6.93894 17.075 6.94353C17.0684 6.94812 17.063 6.95427 17.0594 6.96142L16.9641 7.54297C16.9516 7.63506 16.958 7.72872 16.9828 7.81841C17.0075 7.9081 17.0502 7.99199 17.1082 8.06512L17.4365 8.4841L17.5771 8.53891C17.6361 8.56211 17.6997 8.57169 17.7629 8.56693C17.8261 8.56216 17.8874 8.54318 17.9421 8.51142C17.9967 8.47966 18.0433 8.43596 18.0783 8.38365C18.1133 8.33133 18.1358 8.27178 18.1441 8.20952L18.1413 8.20612Z" fill="#E4003A"/>
<path d="M20.4312 11.5323C20.5472 11.3161 20.7357 11.1467 20.9642 11.0531C21.1927 10.9596 21.447 10.9478 21.6833 11.0197L26.4685 12.4827C26.6666 12.5408 26.8493 12.6416 27.0035 12.7777C27.1578 12.9139 27.2797 13.0821 27.3606 13.2704C27.4333 13.4385 27.4718 13.6191 27.4739 13.8019C27.476 13.9847 27.4416 14.1662 27.3728 14.3358C27.3039 14.5055 27.202 14.66 27.0727 14.7906C26.9435 14.9212 26.7895 15.0253 26.6196 15.0969C26.4295 15.1771 26.2238 15.2148 26.0173 15.2073C25.8108 15.1998 25.6085 15.1472 25.4248 15.0534L20.8158 12.758C20.3386 12.47 20.1801 11.9481 20.4322 11.5323L20.4312 11.5323Z" fill="#F8AD07"/>
<path d="M17.3352 8.42494L18.0081 8.07675L21.9532 11.3866C22.0148 11.4376 22.0717 11.4939 22.1232 11.5549C22.1579 11.5962 22.1839 11.644 22.1996 11.6956C22.2152 11.7471 22.2203 11.8012 22.2144 11.8546L22.1252 12.6983C22.1185 12.7648 22.0953 12.8286 22.0576 12.884C22.0199 12.9395 21.969 12.9848 21.9093 13.016C21.8496 13.0472 21.783 13.0633 21.7156 13.0629C21.6481 13.0625 21.5817 13.0455 21.5225 13.0135L20.4716 12.4538C20.4203 12.4265 20.3755 12.3887 20.3401 12.3429L17.3352 8.42562L17.3352 8.42494Z" fill="#F8AD07"/>
<path d="M27.3769 11.2144C27.1793 11.7709 26.7855 11.977 26.7855 11.977C26.4959 12.1359 25.817 12.0682 25.817 12.0682L25.4098 10.2701L26.0254 9.93227L27.3769 11.2144Z" fill="#E4003A"/>
<path d="M25.8155 12.0653L26.414 12.6446L26.7861 11.979L25.8155 12.0653Z" fill="white"/>
<path d="M27.3749 11.2095L27.6346 11.9748L26.7862 11.979L27.3749 11.2095Z" fill="white"/>
<path d="M26.9533 9.6313L26.1562 8.46137L24.5183 9.55518L25.3889 10.833C25.458 10.9338 25.5646 11.0035 25.6853 11.027C25.8061 11.0504 25.9314 11.0257 26.0338 10.9582L26.8231 10.4311C27.1565 10.2084 27.1299 9.89057 26.9533 9.6313Z" fill="#E4003A"/>
<path d="M26.1631 8.18598C26.1707 8.1583 26.1713 8.12917 26.1647 8.10122C26.1582 8.07326 26.1448 8.04733 26.1257 8.02575C26.1066 8.00416 26.0824 7.9876 26.0553 7.97752C26.0282 7.96745 25.9989 7.96418 25.9702 7.96801C25.9625 7.93024 25.9425 7.89601 25.9132 7.8706C25.884 7.8452 25.8471 7.83001 25.8082 7.82739C25.7694 7.82476 25.7308 7.83485 25.6983 7.85608C25.6658 7.87732 25.6413 7.90854 25.6285 7.94493C25.6279 7.94359 25.627 7.94237 25.626 7.9413C25.6039 7.90863 25.5713 7.88428 25.5334 7.87218C25.4956 7.86008 25.4548 7.86093 25.4175 7.8746C25.3802 7.88827 25.3487 7.91395 25.3279 7.94752C25.3072 7.98109 25.2985 8.02059 25.3032 8.05967C25.2756 8.03951 25.2428 8.02772 25.2086 8.02573C25.1744 8.02373 25.1404 8.03163 25.1106 8.04844C25.0809 8.06526 25.0567 8.09028 25.0411 8.12044C25.0255 8.15061 25.019 8.18463 25.0226 8.21835C24.9964 8.20907 24.9684 8.20601 24.9408 8.20944C24.9132 8.21286 24.8869 8.22266 24.8638 8.23805C24.8408 8.25343 24.8217 8.27398 24.8082 8.29801C24.7947 8.32205 24.787 8.3489 24.7859 8.3764C24.7547 8.36539 24.7209 8.36332 24.6885 8.37043C24.6561 8.37754 24.6264 8.39354 24.6028 8.41659C24.5792 8.43964 24.5626 8.46882 24.5549 8.50078C24.5473 8.53274 24.5489 8.56618 24.5595 8.59728C24.5246 8.58794 24.4877 8.58939 24.4537 8.60145C24.4196 8.6135 24.3902 8.63557 24.3692 8.6647C24.3482 8.69383 24.3367 8.72862 24.3363 8.7644C24.3358 8.80018 24.3465 8.83524 24.3667 8.86486C24.3709 8.87238 24.3758 8.87951 24.3813 8.8862C24.3571 8.89624 24.3356 8.91146 24.3181 8.93077C24.3006 8.95008 24.2877 8.97299 24.2803 8.99785C24.2729 9.0227 24.2712 9.04888 24.2752 9.07448C24.2793 9.10009 24.289 9.12448 24.3038 9.14589C24.3182 9.16703 24.3372 9.18476 24.3594 9.1978C24.3816 9.21083 24.4064 9.21886 24.4321 9.2213C24.4061 9.24568 24.3883 9.27727 24.3808 9.31191C24.3734 9.34654 24.3767 9.3826 24.3904 9.41533C24.404 9.44806 24.4273 9.47593 24.4573 9.49526C24.4873 9.5146 24.5224 9.52451 24.5582 9.52367C24.5464 9.55062 24.5416 9.58008 24.5443 9.60933C24.5471 9.63858 24.5572 9.66668 24.5738 9.69104C24.5904 9.71539 24.6129 9.73521 24.6393 9.74867C24.6656 9.76213 24.695 9.76879 24.7247 9.76804C24.7139 9.79254 24.709 9.81916 24.7103 9.84584C24.7116 9.87252 24.7191 9.89855 24.7321 9.92193C24.7452 9.9453 24.7635 9.96538 24.7856 9.98064C24.8078 9.99589 24.8332 10.0059 24.8599 10.0099C24.8508 10.0414 24.8508 10.0747 24.8599 10.1062C24.8689 10.1377 24.8868 10.1661 24.9113 10.188C24.9358 10.21 24.966 10.2248 24.9986 10.2306C25.0311 10.2364 25.0647 10.2331 25.0954 10.221C25.0991 10.2465 25.1084 10.2709 25.1227 10.2924C25.1492 10.3311 25.1901 10.3578 25.2364 10.3667C25.2827 10.3756 25.3307 10.366 25.3699 10.34L25.7098 10.113L25.582 9.92534C25.5611 9.94091 25.5372 9.9521 25.5117 9.95823C25.4862 9.96436 25.4598 9.96529 25.434 9.96099C25.4081 9.95668 25.3834 9.94722 25.3614 9.93318C25.3394 9.91914 25.3205 9.90081 25.3058 9.8793C25.2912 9.8578 25.2811 9.83357 25.2762 9.80809C25.2713 9.78261 25.2717 9.75641 25.2773 9.73108C25.283 9.70576 25.2938 9.68183 25.309 9.66076C25.3243 9.63968 25.3438 9.62191 25.3662 9.6085L25.2869 9.49215C25.1772 9.33112 25.2273 9.23091 25.3041 9.17959L26.3174 8.50288L26.3152 8.49966C26.3512 8.47624 26.3773 8.44067 26.3887 8.3996C26.4 8.35852 26.3959 8.31475 26.3771 8.27645C26.3582 8.23816 26.326 8.20797 26.2863 8.19152C26.2466 8.17507 26.2022 8.17349 26.1614 8.18707L26.1631 8.18598Z" fill="#303642"/>
<path d="M33.1846 21.1026C39.0279 19.6305 44.0797 21.9253 44.0797 21.9253L26.4857 31.9721L25.1199 29.6324C25.1199 29.6324 26.7537 26.8882 28.3311 23.8741C30.3426 22.061 30.5313 21.771 33.1846 21.1026Z" fill="#ADB4C6"/>
<path d="M39.3289 31.6563C43.5455 27.3838 44.0655 21.9072 44.0655 21.9072L26.4502 31.9663L27.8159 34.306C27.8159 34.306 31.0386 34.277 34.4694 34.4312C37.0655 33.6132 37.4141 33.5964 39.3289 31.6563Z" fill="#ADB4C6"/>
<path d="M28.5543 23.7941L25.394 29.8239L18.034 29.7003C18.034 29.7003 18.9838 28.4774 20.2065 27.3533C21.0953 26.5362 22.2001 25.8126 22.8392 25.4477C23.4043 25.125 24.6437 24.5398 25.5964 24.2758C27.2034 23.8305 28.5543 23.7941 28.5543 23.7941Z" fill="#E94E0F"/>
<path d="M34.6131 34.1821L27.7527 33.8739L24.181 40.2391C24.181 40.2391 25.7268 40.0371 27.3225 39.552C28.4824 39.1994 29.6684 38.6149 30.3075 38.25C30.8727 37.9274 32.0048 37.1585 32.7124 36.4745C33.9058 35.3209 34.6131 34.1821 34.6131 34.1821Z" fill="#E94E0F"/>
<ellipse cx="1.92015" cy="1.92143" rx="1.92015" ry="1.92143" transform="matrix(0.504251 0.863563 -0.868462 0.495766 38.7164 22.7975)" fill="#F1F4F8"/>
<path d="M24.2681 37.7088C22.5147 38.7099 15.8833 39.6608 13.0371 39.9971C14.7547 37.7278 18.9032 32.5241 20.6566 31.523C22.41 30.5219 24.6399 31.0951 25.6372 32.8033C26.6345 34.5114 26.0215 36.7077 24.2681 37.7088Z" fill="#870B58"/>
<path d="M24.5054 37.1695C23.1479 37.9445 17.885 38.4602 15.6229 38.6203C16.8941 36.7631 19.9772 32.514 21.3347 31.739C22.6922 30.9639 24.5025 31.5513 25.378 33.0509C26.2536 34.5506 25.8629 36.3945 24.5054 37.1695Z" fill="#ADB4C6"/>
<path d="M24.4752 36.286C23.506 36.8393 19.685 37.0989 18.0411 37.1638C18.9199 35.7886 21.0578 32.6462 22.027 32.0929C22.9963 31.5396 24.33 32.0296 25.0061 33.1875C25.6822 34.3454 25.4445 35.7326 24.4752 36.286Z" fill="#F1F4F8"/>
<path d="M26.3332 33.3251L25.7966 33.7553L26.071 34.0907L26.2613 34.042C26.2797 34.0329 26.3601 34.061 26.4431 34.0946C26.4673 34.1043 26.4934 34.1082 26.5193 34.1061C26.5453 34.1039 26.5704 34.0958 26.5925 34.0822C26.6147 34.0687 26.6333 34.0501 26.6468 34.0281C26.6603 34.0061 26.6685 33.9812 26.6705 33.9555C26.6836 33.8285 26.6902 33.7009 26.6901 33.5733C26.6877 33.532 26.6758 33.4918 26.6554 33.4556C26.6351 33.4195 26.6067 33.3884 26.5725 33.3647C26.5383 33.3409 26.4991 33.3252 26.4578 33.3186C26.4166 33.312 26.3744 33.3148 26.3345 33.3267L26.3332 33.3251Z" fill="#242831"/>
<path d="M26.857 34.4146C26.8452 34.3923 26.8278 34.3735 26.8065 34.3598C26.7853 34.3461 26.7608 34.3381 26.7355 34.3366C26.7102 34.335 26.6849 34.34 26.6621 34.351C26.6394 34.3619 26.6198 34.3786 26.6055 34.3992L26.4745 34.5843L26.9097 35.1163L27.1199 34.9479L26.857 34.4146Z" fill="#242831"/>
<path d="M26.8576 34.4148L26.7279 33.8077L26.7227 33.5286C26.7223 33.4878 26.7113 33.4477 26.6907 33.4123C26.6649 33.3701 26.6265 33.337 26.5807 33.3175C26.5349 33.2981 26.4842 33.2934 26.4357 33.3041L26.335 33.3259L26.2612 34.0417L26.4757 34.5852L26.4957 34.5966C26.5308 34.616 26.5701 34.6266 26.6102 34.6275C26.6503 34.6283 26.69 34.6194 26.7258 34.6015C26.7615 34.5837 26.7923 34.5573 26.8154 34.5249C26.8385 34.4925 26.8532 34.4549 26.8582 34.4155L26.8576 34.4148Z" fill="#242831"/>
<path d="M32.1019 26.5248L26.2022 33.4152L26.7218 33.9338L33.5346 27.9071C33.6407 27.8132 33.7253 27.6981 33.7829 27.5693C33.8406 27.4405 33.8698 27.3011 33.8688 27.1602C33.8678 27.0194 33.8366 26.8803 33.7771 26.7524C33.7177 26.6244 33.6314 26.5105 33.524 26.4181C33.4239 26.3319 33.3075 26.2662 33.1816 26.2249C33.0557 26.1836 32.9227 26.1675 32.7905 26.1774C32.6582 26.1873 32.5292 26.2231 32.411 26.2828C32.2928 26.3424 32.1878 26.4247 32.1019 26.5248Z" fill="#870B58"/>
<path d="M31.3612 19.9775L28.4441 21.5784L32.1905 27.5177C32.3296 27.7381 32.5488 27.8973 32.8029 27.9625C33.057 28.0277 33.3267 27.9938 33.5564 27.8679V27.8679C33.7588 27.7568 33.9137 27.5769 33.9926 27.3614C34.0714 27.146 34.0689 26.9096 33.9854 26.6959L31.3612 19.9775Z" fill="#870B58"/>
<path d="M43.1175 0.53861C42.5384 0.53861 41.9944 0.660232 41.4855 0.886101C41.1696 0.364865 40.5905 0 39.9236 0C38.9233 0 38.1161 0.799228 38.1161 1.78958C38.1161 1.80695 38.1161 1.82433 38.1161 1.8417C37.9757 1.80695 37.8178 1.78958 37.6598 1.78958C36.8701 1.78958 36.1857 2.20657 35.7997 2.83205H38.4671H39.52H41.3802H46.6975C46.1008 1.47683 44.7144 0.53861 43.1175 0.53861Z" fill="#FDEAC1"/>
<path d="M14.6532 14.1602C14.2145 14.1602 13.7758 14.2123 13.3546 14.3339C13.2669 13.222 12.3368 12.3359 11.1786 12.3359C10.3713 12.3359 9.66938 12.7702 9.28331 13.4131C8.84459 13.2741 8.38832 13.1872 7.9145 13.1872C7.10726 13.1872 6.35266 13.4131 5.72091 13.7953C5.35238 13.7085 4.94876 13.6563 4.56268 13.6563C2.59722 13.6563 0.894988 14.7336 0 16.3146H3.80809H9.12537H10.0204H10.5644H12.056H12.3894H18.7948C17.8822 15.0289 16.373 14.1602 14.6532 14.1602Z" fill="#F8BFCD"/>
<path d="M56.0509 15.4633C57.0161 15.4633 57.8585 15.8977 58.42 16.5753C58.7359 16.4537 59.0693 16.3668 59.4203 16.3668C60.7365 16.3668 61.807 17.3224 62 18.5734H59.122H56.8582H52.9975C52.9975 18.5386 52.9975 18.5212 52.9975 18.4865C52.9799 16.8359 54.3487 15.4633 56.0509 15.4633Z" fill="#FFD6EB"/>
<defs>
<clipPath id="clip0_58_15660">
<rect width="25.0948" height="13.2046" fill="white" transform="translate(3.86075 31.7953)"/>
</clipPath>
</defs>
</svg>
